# xmcd
# 
# Track frame offsets:
#     183
#     10100
#     23545
#     33995
#     45333
#     66313
#     75080
#     84885
#     97975
#     109635
#     124675
#     132638
#     142575
#     154190
# 
# Disc length: 2222
# 
# Revision: 15
# Processed by: cddbd v1.5.2PL0 Copyright (c) Steve Scherf et al.
# Submitted via: fre:ac v1.0.17
# 
DISCID=9508ac0e
DTITLE=Various Artist - Swiat muzyki. Hity szalonych lat 60 i 70. Twist and shout
DYEAR=2000
DGENRE=Rock
TTITLE0=Alan Carvell - I Get Around
TTITLE1=Gaynor Ellen - Where Did Our Love Go
TTITLE2=Richard Belcher - You Really Got Me
TTITLE3=John Carr,Tim Eames - A Hard Day's Night
TTITLE4=Gordon Neville - The House of the Rising Sun
TTITLE5=John Carr,Tim Eames - Please Please Me
TTITLE6=Alan Carvell - Fun Fun Fun
TTITLE7=Clive Scott - Oh Pretty Woman
TTITLE8=Alan Carvell - Twist And Shout
TTITLE9=Kim Kelly - It's All Over Now
TTITLE10=Sorven McRae - Hippy Hippy Shake
TTITLE11=Des Dyer - Can't Buy Me Love
TTITLE12=Nigel Stock and Erwin Keilis - Green Onions
TTITLE13=Kim Kelly - Time Is on My Side
EXTD=YEAR: 1997
EXTT0=
EXTT1=
EXTT2=
EXTT3=
EXTT4=
EXTT5=
EXTT6=
EXTT7=
EXTT8=
EXTT9=
EXTT10=
EXTT11=
EXTT12=
EXTT13=
PLAYORDER=
